<svg xmlns="http://www.w3.org/2000/svg" xmlns:xlink="http://www.w3.org/1999/xlink" version="1.1" x="0px" y="0px" viewBox="0 0 100 125" enable-background="new 0 0 100 100" xml:space="preserve"><path d="M84.995,49.571c0.013-1.028-0.022-2.026-0.082-2.994c0.018-0.092,0.027-0.187,0.027-0.283c0-0.022,0-0.044-0.001-0.066  c-0.104-2.433-0.169-3.867-0.45-4.681c-1.351-8.538-9.099-14.781-16.154-17.84c-5.312-2.302-11.224-3.47-17.573-3.47  c0,0-0.453-0.001-0.454-0.001l-0.281,0.001c-6.352,0-12.264,1.167-17.575,3.47c-7.269,3.152-15.271,9.68-16.259,18.618  c-0.002,0.016-0.004,0.031-0.006,0.047c-0.015,0.136-0.043,0.267-0.055,0.404c-0.011,0.127-0.019,0.252-0.029,0.379  c-0.025,0.278-0.05,0.58-0.078,0.917c-0.179,2.157-0.179,2.157-0.179,2.221c0,0.097,0.01,0.191,0.028,0.283  c-0.06,0.974-0.096,1.964-0.083,2.956C15.726,54.25,16,60.734,18.61,66.418c0.029,0.077,0.066,0.15,0.107,0.221  c0.551,1.168,1.194,2.303,1.964,3.377c4.125,5.754,11.771,8.855,23.353,9.482c1.839,0.125,6.351,0.184,6.351,0.184  s4.528-0.059,6.346-0.184c11.604-0.627,19.25-3.729,23.374-9.482C84.657,63.664,85.076,55.283,84.995,49.571z M56.547,76.504  c-1.77,0.121-6.162,0.179-6.162,0.179s-4.376-0.058-6.167-0.18c-10.488-0.567-17.587-3.338-21.099-8.235  c-0.29-0.405-0.557-0.824-0.81-1.249c1.728-0.601,3.408-2.064,4.214-5.273c0.047-0.188,0.097-0.415,0.152-0.67  c0.735-3.362,1.745-5.39,4.47-5.12c1.677,0.168,2.329,2.273,3.134,5.468c0.743,2.948,1.584,6.288,4.58,6.744  c4.408,0.67,5.964-3.082,6.34-3.863s0.579-1.11,1.163-2.438c0.584-1.33,1.956-2.82,3.067-2.615c1.541,0.281,1.674,0.857,2.065,2.565  c0,0,0.317,1.366,0.406,1.771c0.52,2.394,1.166,5.373,3.395,6.975c1.078,0.776,2.381,1.151,3.697,1.151  c1.895,0,3.818-0.776,5.144-2.25c1.42-1.579,2.09-3.854,2.738-6.055c0.843-2.865,1.493-4.759,2.796-4.981  c1.737-0.3,2.505,1.124,3.47,4.219c0.194,0.622,0.377,1.21,0.589,1.693l0.06,0.138c0.592,1.358,1.508,3.456,3.554,4.204  C73.732,73.317,66.753,75.953,56.547,76.504z M79.063,65.967c-0.028-0.002-0.056-0.008-0.084-0.008  c-1.094,0-1.615-0.791-2.439-2.681c0,0-0.365-0.984-0.534-1.524c-0.771-2.474-2.207-7.073-6.84-6.284  c-3.244,0.554-4.267,4.026-5.168,7.091c-0.554,1.88-1.126,3.823-2.091,4.896c-1.211,1.346-3.481,1.662-4.859,0.669  c-1.292-0.929-1.804-3.284-2.214-5.176c-0.095-0.434-0.414-1.806-0.414-1.806c-0.407-1.776-0.966-4.209-4.45-4.846  c-3.201-0.59-4.896,2.029-6.175,4.013c-0.402,0.622-0.707,1.331-1.001,2.016c-0.997,2.319-1.551,3.171-3.482,2.874  c-1.024-0.156-1.607-2.47-2.122-4.511c-0.822-3.267-1.847-7.332-5.746-7.72c-5.951-0.591-7.216,5.261-7.697,7.463  c-0.048,0.221-0.091,0.418-0.132,0.581c-0.486,1.94-1.31,2.956-2.656,3.261c-2.005-4.941-2.224-10.559-2.166-14.742  c-0.017-1.291,0.257-5.609,0.331-6.511c0.649-7.859,8.229-13.834,14.522-16.562c4.933-2.139,10.443-3.223,16.382-3.223h0.735  c5.937,0,11.447,1.084,16.38,3.223c2.421,1.049,5.029,2.583,7.363,4.517c2.499,2.433,3.176,5.088,3.254,7.026  c-0.037,0.132-0.058,0.271-0.058,0.415c0,6.705-11.096,12.37-24.229,12.37c-12.848,0-23.746-5.421-24.215-11.934  c0.042-0.138,0.064-0.284,0.064-0.436c0-5.199,8.735-9.59,19.075-9.59c10.084,0,18.643,4.178,19.06,9.207  c-0.032,0.123-0.05,0.251-0.05,0.384c0,3.293-5.6,6.82-13.935,6.82c-8.033,0-13.525-3.275-13.913-6.46  c0.028-0.115,0.043-0.236,0.043-0.36c0-1.911,3.761-4.049,8.795-4.049c4.73,0,8.338,1.887,8.756,3.701  c-0.027,0.111-0.041,0.228-0.041,0.348c0,0.316-1.291,1.271-3.64,1.271c-2.35,0-3.641-0.955-3.641-1.271c0-0.829-0.672-1.5-1.5-1.5  s-1.5,0.671-1.5,1.5c0,2.435,2.854,4.271,6.641,4.271c3.434,0,6.102-1.511,6.567-3.61c0.099-0.199,0.153-0.424,0.153-0.661  c0-3.953-5.182-7.049-11.796-7.049c-6.314,0-11.322,2.822-11.764,6.517c-0.063,0.165-0.097,0.345-0.097,0.532  c0,5.506,7.439,9.82,16.936,9.82c9.205,0,16.477-4.053,16.914-9.317c0.056-0.157,0.086-0.326,0.086-0.502  c0-7.06-9.696-12.59-22.075-12.59c-12.063,0-21.58,5.252-22.057,12.054c-0.063,0.167-0.099,0.348-0.099,0.537  c0,8.619,11.961,15.37,27.23,15.37c14.938,0,26.708-6.463,27.21-14.814c0.518,1.284,0.865,2.634,0.982,4.048  c0.074,0.904,0.348,5.224,0.331,6.552C82.061,54.207,81.788,60.659,79.063,65.967z"/><text x="0" y="115" fill="#000000" font-size="5px" font-weight="bold" font-family="'Helvetica Neue', Helvetica, Arial-Unicode, Arial, Sans-serif">Created by Kaylen Yul Lee</text><text x="0" y="120" fill="#000000" font-size="5px" font-weight="bold" font-family="'Helvetica Neue', Helvetica, Arial-Unicode, Arial, Sans-serif">from the Noun Project</text></svg>